<?xml version="1.0" standalone="no"?>
<!DOCTYPE svg PUBLIC "-//W3C//DTD SVG 20010904//EN"
 "http://www.w3.org/TR/2001/REC-SVG-20010904/DTD/svg10.dtd">
<svg version="1.0" xmlns="http://www.w3.org/2000/svg"
 width="1455.000000pt" height="1455.000000pt" viewBox="0 0 1455.000000 1455.000000"
 preserveAspectRatio="xMidYMid meet">
<metadata>
Created by potrace 1.14, written by Peter Selinger 2001-2017
</metadata>
<g transform="translate(0.000000,1455.000000) scale(0.100000,-0.100000)"
fill="#000000" stroke="none">
<path d="M6780 14539 c-1646 -116 -3176 -766 -4390 -1866 -1323 -1199 -2160
-2834 -2350 -4590 -32 -302 -40 -457 -40 -808 0 -351 8 -506 40 -808 174
-1607 891 -3119 2030 -4281 277 -282 526 -501 833 -733 1133 -852 2457 -1343
3897 -1443 187 -13 763 -13 950 0 1440 100 2764 591 3897 1443 1499 1129 2499
2771 2807 4612 66 393 87 635 93 1092 6 412 -2 605 -37 924 -177 1616 -890
3119 -2030 4283 -1268 1294 -2911 2050 -4730 2176 -168 11 -801 11 -970 -1z"/>
</g>
</svg>
